<?xml version="1.0" encoding="UTF-8"?>
<svg width="411px" height="355px" viewBox="0 0 411 355" version="1.1" xmlns="http://www.w3.org/2000/svg" xmlns:xlink="http://www.w3.org/1999/xlink">
    <!-- Generator: Sketch 49 (51002) - http://www.bohemiancoding.com/sketch -->
    <title>Group 4</title>
    <desc>Created with Sketch.</desc>
    <defs>
        <path d="M101,43 L144,8 L230,2.84217094e-14 L319,21 L420,132 L420,364 L27,364 C9,338.914931 -1.94289029e-15,320.914931 0,310 C1.45716772e-15,299.085069 5,281.751736 15,258 L82,279 L120,268 L78,160 C76.0682606,132.416106 76.0682606,111.749439 78,98 C79.9317394,84.2505609 87.598406,65.9172276 101,43 Z" id="path-1"></path>
    </defs>
    <g id="Page-1" stroke="none" stroke-width="1" fill="none" fill-rule="evenodd">
        <g id="Desktop" transform="translate(-401.000000, -116.000000)">
            <g id="Group-4" transform="translate(392.000000, 107.000000)">
                <mask id="mask-2" fill="white">
                    <use xlink:href="#path-1"></use>
                </mask>
                <g id="Mask"></g>
                <g mask="url(#mask-2)">
                    <g transform="translate(218.500000, 229.500000) rotate(-22.000000) translate(-218.500000, -229.500000) translate(-8.000000, 8.000000)">
                        <path d="M442.333944,239.229696 L446.103516,249 C459.489122,283.326984 452.320657,304.097381 427.822266,330.984375 C414.11152,346.031924 400.760169,358.702706 380,356.880859 L382.09181,353.467027 C348.636621,355.331794 315.086838,355.946182 281.730469,359.117187 C264.552009,360.750248 247.779915,365.353662 230.710938,367.886719 C207.536076,371.325896 139.758791,371.63578 136.902344,371.621094 C130.456122,371.587951 125.442562,366.714111 119.685912,363.949226 L119.414063,368 C97.4474225,340.385041 76.99647,300.641801 100.035156,266.153065 C110.250503,250.86077 125.777231,238.029282 129.722656,219.368739 C133.05272,203.61865 132.34843,189.296619 131.197331,175.206992 C129.753671,167.189813 129,158.932921 129,150.5 C129,146.348254 129.182679,142.239175 129.540436,138.180362 C130.080202,128.161384 131.880823,117.761562 136.104027,106.593719 C144.672938,80.9384039 160.545396,58.6260193 181.253555,42.1244104 C176.21454,36.6218583 174.070967,30.8450425 176.164411,26.5528461 C179.620584,19.4666412 193.375484,18.989542 207.475458,25.2372021 C211.334764,10.0718435 220.639311,-0.496666618 229.370416,1.04286274 C234.672549,1.97777185 238.646227,7.18088299 240.600187,14.6105383 C249.301907,12.8977778 258.29611,12 267.5,12 C342.066265,12 402.869505,70.9265204 405.882919,144.752763 C408.501421,188.262261 423.306947,197.168356 442.333944,239.229696 Z" id="hair-back" fill="#6A3F12"></path>
                        <path d="M221,272.679665 C201.54777,267.24129 182.769143,255 175.994468,223 C165.863047,223 156.818861,220.992701 151,200 C145.181139,179.007299 153.268518,162.443237 167,161 C170.47781,160.634467 172.771971,159.2527 175.994468,161 C181.282975,131.554351 207.032148,106 238,106 L299,106 C330.70107,106 356.933413,132.521662 361.346564,163 C365.574829,159.56181 365.130409,163 370,163 C384,163 392,180 386,200 C379.772146,220.759514 369.574497,221.864791 361.346564,221 C354,255 330.746583,270.050411 311,273.85852 L311,293.611414 L382.051454,310.014935 C406.267292,315.605601 421.365976,339.768547 415.77531,363.984385 L405.652512,407.831038 C400.061846,432.046876 375.8989,447.14556 351.683062,441.554893 L271.913111,423.138549 C269.633197,422.61219 267.434099,421.921202 265.325474,421.081042 C264.582622,421.292916 263.830402,421.487012 263.069172,421.662756 L183.299221,440.0791 C159.083383,445.669767 134.920437,430.571083 129.32977,406.355245 L119.206973,362.508592 C113.616306,338.292754 128.714991,314.129808 152.930828,308.539142 L221,292.824135 L221,272.679665 Z" id="skin" fill="#FFD2B4"></path>
                        <path d="M332.513015,298.578085 L382.051454,310.014935 C406.267292,315.605601 421.365976,339.768547 415.77531,363.984385 L405.652512,407.831038 C400.061846,432.046876 375.8989,447.14556 351.683062,441.554893 L271.913111,423.138549 C269.633197,422.61219 267.434099,421.921202 265.325474,421.081042 C264.582622,421.292916 263.830402,421.487012 263.069172,421.662756 L183.299221,440.0791 C159.083383,445.669767 134.920437,430.571083 129.32977,406.355245 L119.206973,362.508592 C113.616306,338.292754 128.714991,314.129808 152.930828,308.539142 L193.298409,299.219551 C192.446316,302.223366 192,305.326079 192,308.5 C192,335.28581 223.787783,357 263,357 C302.212217,357 334,335.28581 334,308.5 C334,305.099612 333.48772,301.780957 332.513003,298.578081 L332.513015,298.578085 Z" id="clothe" fill="#EDD377"></path>
                        <path d="M267.248515,110.208588 C262.699142,125.054604 244.554243,142.10728 219.544659,153.242264 C185.997296,168.178512 152.802001,166.810999 145.400892,150.187837 C137.999784,133.564675 159.195511,107.980719 192.742874,93.0444701 C226.290238,78.1082217 259.485533,79.4757352 266.886641,96.0988969 C267.144737,96.6785897 267.368056,97.2691797 267.557288,97.8698353 C267.660695,97.6006954 267.771287,97.3337481 267.889128,97.0690725 C275.290237,80.4459107 308.485532,79.0783973 342.032895,94.0146457 C375.580258,108.950894 396.775985,134.534851 389.374877,151.158013 C381.973768,167.781174 348.778473,169.148688 315.23111,154.21244 C289.674917,142.834089 271.286757,125.276547 267.248515,110.208588 Z" id="hair-f" fill="#6A3F12"></path>
                        <path d="M88.8884335,281.268216 L110.790741,348.676586 C112.156064,352.878618 109.856457,357.391851 105.654425,358.757174 L61.3809881,373.142486 C57.178956,374.507809 52.665723,372.208202 51.3004,368.00617 L25.7918776,289.49901 C17.2787183,282.466493 9.87912344,272.012498 5.26152672,259.325755 C-5.03311504,231.04146 2.39823079,202.370221 21.8599022,195.286752 C41.3215736,188.203283 65.4438315,205.389949 75.7384733,233.674245 C76.2437809,235.062566 76.7063815,236.451819 77.1269485,237.839407 C81.3379665,231.147967 86.7303525,227.696315 91.4899849,229.45531 C99.0028199,232.266849 101.328431,247.325946 97.0226344,263.090743 C95.0889352,270.660679 92.153183,277.016856 88.8884335,281.268216 Z" id="hand" fill="#FFD2B4"></path>
                        <path d="M311,237 C311,251.911688 292.195959,264 269,264 C245.804041,264 227,251.911688 227,237 C227,232.029437 230.581722,228 235,228 L303,228 C307.418278,228 311,232.029437 311,237 Z" id="mouth" fill="#FF9C8B"></path>
                        <g id="Group-3" stroke-width="1" fill="none" transform="translate(209.000000, 173.000000)">
                            <g id="Group-2" transform="translate(99.000000, 0.000000)">
                                <path d="M8.94117647,0 L10.0588235,0 C14.9968989,0 19,3.581722 19,8 L19,27 C19,31.418278 14.9968989,35 10.0588235,35 L8.94117647,35 C4.00310106,35 0,31.418278 0,27 L0,8 C0,3.581722 4.00310106,0 8.94117647,0 Z" id="Rectangle" fill="#312E33"></path>
                                <path d="M11,9.4478321 C11,10.9891469 10.2222222,12.3411172 10.2222222,14.1094293 C10.2222222,15.8777413 11,16.9891469 11,18.7710264 C11,20.5529059 9,22.9891469 7,21.9891469 C4.90004997,20.9391719 4,18.8238052 4,14.1094293 C4,9.39505328 5.99999419,6 7.88888889,6 C10,6 11,7.90651726 11,9.4478321 Z" id="Combined-Shape" fill="#F9F5F5"></path>
                            </g>
                            <g id="Group" transform="translate(0.000000, 1.000000)">
                                <path d="M8.94117647,0 L10.0588235,0 C14.9968989,0 19,3.581722 19,8 L19,27 C19,31.418278 14.9968989,35 10.0588235,35 L8.94117647,35 C4.00310106,35 0,31.418278 0,27 L0,8 C0,3.581722 4.00310106,0 8.94117647,0 Z" id="Rectangle" fill="#312E33"></path>
                                <path d="M11,9.45868516 C11,11 10.2222222,12.3519702 10.2222222,14.1202823 C10.2222222,15.8885944 11,17 11,18.7818795 C11,20.563759 9,23 7,22 C4.90004997,20.950025 4,18.8346583 4,14.1202823 C4,9.40590635 5.99999419,6.01085307 7.88888889,6.01085307 C10,6.01085307 11,7.91737032 11,9.45868516 Z" id="Combined-Shape" fill="#F8F1F1"></path>
                            </g>
                        </g>
                        <g id="eyebrows" stroke-width="1" fill="none" transform="translate(182.000000, 134.000000)">
                            <path d="M115.930215,18.2872971 C122.253111,12.8336926 128.053528,10.0098943 142.766715,9.73906543 C157.479902,9.46823657 173.7965,16.3076255 172.390644,24.7706984 C172.273569,25.4754715 157.297621,17.9652418 144.152247,16.9645798 C130.330311,15.9124159 119.349824,21.9320933 116.532114,22.4131919 C113.714403,22.8942905 113.399581,20.4700117 115.930215,18.2872971 Z" id="Combined-Shape" fill="#312E33"></path>
                            <path d="M2.50265428,18.3666166 C8.72940807,12.8034929 15.1346848,11.5423556 29.8409041,11.0147875 C44.5471234,10.4872194 63.0278456,21.4366687 59.0676343,23.8636601 C55.107423,26.2906515 43.1217007,18.6584229 29.9608648,17.8873317 C16.1226706,17.0765542 5.98535271,21.9511772 3.17646777,22.4813784 C0.367582822,23.0115796 0.0104995131,20.5931644 2.50265428,18.3666166 Z" id="Combined-Shape" fill="#312E33"></path>
                        </g>
                    </g>
                </g>
            </g>
        </g>
    </g>
</svg>